<?xml version='1.0' encoding='utf-8'?>
<svg xmlns="http://www.w3.org/2000/svg" width="132.29mm" height="132.29mm" version="1.1" viewBox="0 0 132.29 132.29"> <g transform="translate(-56.016 -47.263)"> <g> <rect x="56.016" y="47.263" width="132.29" height="132.29" fill="#eee" stroke-linecap="round" stroke-linejoin="round" stroke-width=".44024" style="paint-order:markers fill stroke"/> <g transform="matrix(.79171 0 0 .79171 25.445 23.622)"> <path d="m109.84 90.519c-4.6975 0-10.875 3.92e-4 -15.089 3.7672-4.2131 3.7668-6.4629 11.304-8.064 16.853-1.6011 5.5492-2.5548 9.113-3.0324 12.483-0.47758 3.3706-0.47664 8.0017 0.55557 9.8663 1.0322 1.8646 3.0941 2.4177 5.0698 2.6943 1.9756 0.27666 3.8631 0.27811 6.4429-1.3583 2.5798-1.6364 5.8528-6.3665 8.2099-8.1959 2.3571-1.8294 3.7997-2.2159 6.3453-2.409 2.5457-0.19316 6.1946-0.19243 9.3926-0.19243h4.9834c3.198 0 6.8469-1e-3 9.3926 0.19243 2.5457 0.19315 3.9882 0.57946 6.3453 2.409 2.3571 1.8294 5.6301 6.5596 8.2099 8.1959 2.5798 1.6365 4.4673 1.635 6.4429 1.3583s4.0376-0.82961 5.0698-2.6943c1.0322-1.8646 1.0332-6.4958 0.55557-9.8663-0.47758-3.3705-1.4313-6.9343-3.0324-12.483-1.6011-5.5493-3.8509-13.086-8.064-16.853-4.2131-3.7668-10.391-3.7672-15.089-3.7672h-3.5229c-0.30737 1.4449-1.5851 1.571-3.1244 1.571h-11.351c-1.5392 0-2.817-0.12606-3.1244-1.571z" fill="#232323" stroke="#232323" stroke-linecap="round" stroke-linejoin="round" stroke-width="3.6307" style="paint-order:markers fill stroke"/> <path d="m109.8 110.68h-3e-3c-0.0272-0.51055-0.4447-0.91221-0.96137-0.91221h-0.4671c-0.0136-1e-3 -0.0204 0-0.034 0h-0.0204c-0.0136 0-0.0339-8.1e-4 -0.0475 0-0.0136-7e-5 -0.0272-5.4e-4 -0.0407 0-0.62258-6.1e-4 -1.1097 0.36391-1.6489 0.6382-0.70771 0.38427-0.96055 0.74662-0.95783 1.0701-3e-3 0.32317 0.24985 0.68579 0.95783 1.0701 0.53908 0.27429 1.0264 0.63888 1.6489 0.63888 0.0136 5.4e-4 0.0272 6e-5 0.0407 0 0.0136 8.8e-4 0.0339 0 0.0475 0h0.0204c0.0136 0 0.0204 1e-3 0.034 0h0.4671c0.51667 0 0.93421-0.40193 0.96137-0.91222h3e-3c8.2e-4 -0.0136 0-0.0339 0-0.0475v-1.4948c0-0.0136 8.2e-4 -0.034 0-0.0475z" fill="#eee" style="mix-blend-mode:normal;paint-order:markers fill stroke"/> <path d="m98.169 112.27h0.0035c0.02716 0.50988 0.4447 0.91215 0.96137 0.91215h0.4671c0.01358 1e-3 0.02037 0 0.03395 0h0.02037c0.01358 0 0.03395 8.8e-4 0.04753 0 0.01358 6e-5 0.02716 5.4e-4 0.04073 0 0.62257 6.1e-4 1.1097-0.36391 1.6489-0.63888 0.70772-0.38427 0.96055-0.74662 0.95784-1.0701 3e-3 -0.32317-0.24985-0.68579-0.95784-1.0701-0.53907-0.27429-1.0264-0.63888-1.6489-0.6382-0.01358-5.4e-4 -0.02716-7e-5 -0.04073 0-0.01358-8.1e-4 -0.03395 0-0.04753 0h-0.02037c-0.01358 0-0.02037-1e-3 -0.03395 0h-0.4671c-0.51667 0-0.93421 0.40193-0.96137 0.91221h-0.0035c-8.15e-4 0.0136 0 0.034 0 0.0475v1.4948c0 0.0136-8.15e-4 0.034 0 0.0475z" fill="#eee" style="mix-blend-mode:normal;paint-order:markers fill stroke"/> <path d="m104.78 117.29v-3e-3c0.51056-0.0271 0.91221-0.4447 0.91221-0.96136v-0.4671c1e-3 -0.0136 0-0.0204 0-0.0339v-0.0204c0-0.0136 8.2e-4 -0.034 0-0.0475 7e-5 -0.0136 5.4e-4 -0.0271 0-0.0407 6.1e-4 -0.62258-0.36391-1.1097-0.63819-1.6489-0.38428-0.70772-0.74662-0.96055-1.0701-0.95784-0.32317-3e-3 -0.68578 0.24985-1.0701 0.95784-0.27429 0.53907-0.63887 1.0264-0.63887 1.6489-5.5e-4 0.0136-7e-5 0.0272 0 0.0407-8.8e-4 0.0136 0 0.034 0 0.0475v0.0204c0 0.0136-1e-3 0.0204 0 0.0339v0.4671c0 0.51666 0.40192 0.93421 0.91221 0.96136v3e-3c0.0136 8.1e-4 0.034 0 0.0475 0h1.4948c0.0136 0 0.0339 8.1e-4 0.0475 0z" fill="#eee" style="mix-blend-mode:normal;paint-order:markers fill stroke"/> <path d="m103.19 105.66v3e-3c-0.50988 0.0272-0.91214 0.4447-0.91214 0.96137v0.4671c-1e-3 0.0136 0 0.0204 0 0.034v0.0204c0 0.0136-8.8e-4 0.0339 0 0.0475-7e-5 0.0136-5.5e-4 0.0272 0 0.0407-6.1e-4 0.62258 0.3639 1.1097 0.63887 1.6489 0.38428 0.70772 0.74662 0.96055 1.0701 0.95783 0.32317 3e-3 0.68579-0.24984 1.0701-0.95783 0.27428-0.53907 0.63887-1.0264 0.63819-1.6489 5.4e-4 -0.0136 7e-5 -0.0272 0-0.0407 8.2e-4 -0.0136 0-0.0339 0-0.0475v-0.0204c0-0.0136 1e-3 -0.0204 0-0.034v-0.4671c0-0.51667-0.40193-0.93421-0.91221-0.96137v-3e-3c-0.0136-8.1e-4 -0.034 0-0.0475 0h-1.4948c-0.0136 0-0.0339-8.1e-4 -0.0475 0z" fill="#eee" style="mix-blend-mode:normal;paint-order:markers fill stroke"/> <circle transform="rotate(90)" cx="111.47" cy="-136" r="2.0833" fill="#eee" style="mix-blend-mode:normal;paint-order:markers fill stroke"/> <circle transform="rotate(90)" cx="111.47" cy="-143.99" r="2.0833" fill="#eee" style="mix-blend-mode:normal;paint-order:markers fill stroke"/> <circle transform="scale(-1)" cx="-140" cy="-107.48" r="2.0833" fill="#eee" style="mix-blend-mode:normal;paint-order:markers fill stroke"/> <circle transform="scale(-1)" cx="-140" cy="-115.47" r="2.0833" fill="#eee" style="mix-blend-mode:normal;paint-order:markers fill stroke"/> </g> </g> </g> </svg>