<?xml version='1.0' encoding='utf-8'?>
<svg xmlns="http://www.w3.org/2000/svg" enable-background="new 0 0 1024 1024" version="1.1" viewBox="0 0 1024 1024"> <path d="m44.042 190.37c214.57 0.273 429.12 0.156 643.69 0.02 97.245 0.117 194.51-0.215 291.77 0.371-12.841 12.646-26.931 24.023-40.241 36.201-30.659 27.907-62.02 55.053-92.756 82.882-25.097 21.682-49.101 44.612-74.158 66.333-72.129 64.479-143.93 129.35-216.31 193.55-10.89 9.465-21.35 21.018-36.064 24.102-13.895 3.357-28.375-2.674-38.367-12.275-145.37-130.95-291.01-261.6-437.57-391.19z"/> <path d="m25.6 212.42c55.053 47.578 109.3 96.093 163.5 144.67 51.833 47.051 104.66 92.991 156.14 140.41-105.17 101.03-210.67 201.75-316.44 302.16-0.761 0.585-2.283 1.776-3.044 2.361 0.058-196.54 0.019-393.08-0.157-589.6z"/> <path d="m831.31 361.01c55.423-49.374 110.54-99.099 166.54-147.85 0 18.93 1.073 37.879-0.019 56.829 1.054 177.12 0.156 354.32 0.566 531.46-40.67-37.587-80.013-76.676-120.35-114.63-55.015-52.419-110.14-104.7-165.14-157.12-11.085-10.929-22.618-21.408-34.074-31.947 50.565-45.86 101.6-91.214 152.47-136.74z"/> <path d="m366.83 516.33c29.507 26.638 59.268 52.945 88.619 79.759 10.792 9.836 21.974 20.237 36.24 24.667 22.911 8.118 49.257 0.742 66.684-15.632 33.235-29.507 66.586-58.917 99.801-88.463 103.06 98.436 206.71 196.27 309.59 294.9 7.435 7.338 14.988 14.578 22.286 22.072-84.501-0.586-169.02-0.195-253.52-0.234-233.99 0-467.96 0.019-701.95 0.117 22.169-22.326 45.412-43.578 68.03-65.454 88.152-83.838 176.36-167.6 264.22-251.73z"/> </svg>