<?xml version='1.0' encoding='utf-8'?>
<svg xmlns="http://www.w3.org/2000/svg" width="41.667in" height="31.25in" clip-rule="evenodd" fill-rule="evenodd" image-rendering="optimizeQuality" shape-rendering="geometricPrecision" text-rendering="geometricPrecision" version="1.1" viewBox="0 0 41667 31250"> <defs> <style type="text/css">.fil0 {fill:none} .fil1 {fill:#373F47}</style> </defs> <rect class="fil0" x="18219" y="13021" width="5218.8" height="5218.8"/> <path class="fil1" d="m31895 15581v9717.2c-3688.8 0-11067 3932.9-11067 3932.9s-7378.2-3932.9-11067-3932.9v-9717.3l11067 6206.6 11067-6206.5z"/> <rect class="fil1" transform="matrix(15.11 -8.4738 15.11 8.4738 4302.1 11297)" width="1093.8" height="1093.8"/> <path class="fil1" d="m35366 13695 967.48-638.55-17.01 5314.2c84.9 256.43 135.77 583.06 135.77 938.67 0 824.94-273.61 1493.6-611.05 1493.6s-611.05-668.69-611.05-1493.6c0-355.69 50.87-682.4 135.85-938.91v-4675.4z"/> </svg>